<svg width="210" height="95" viewBox="0 0 210 95" fill="none" xmlns="http://www.w3.org/2000/svg">
<g clip-path="url(#clip0)">
<path fill-rule="evenodd" clip-rule="evenodd" d="M203.701 4.17832C204.846 4.17832 205.746 5.16001 205.746 6.30532V88.1947C205.746 89.34 204.846 90.3217 203.701 90.3217H6.29918C5.15388 90.3217 4.17219 89.34 4.17219 88.1947V6.30532C4.17219 5.16001 5.15388 4.17832 6.29918 4.17832H203.701ZM203.701 0.00613403H6.29918C2.86326 0.00613403 0 2.8694 0 6.30532V88.1947C0 91.6306 2.86326 94.4939 6.29918 94.4939H203.701C207.137 94.4939 210 91.6306 210 88.1947V6.30532C210 2.8694 207.137 0.00613403 203.701 0.00613403Z" fill="#F4F4F4"/>
<path fill-rule="evenodd" clip-rule="evenodd" d="M159.934 67.5792C157.889 67.5792 155.843 66.8429 154.125 65.6158L139.482 54.5718C137.437 53.0174 136.128 50.7268 135.719 48.1908C135.392 45.5729 136.046 43.0369 137.6 40.9917C139.4 38.5375 142.263 37.1468 145.29 37.1468C147.417 37.1468 149.462 37.8012 151.099 39.1101L158.298 44.5094L174.332 25.121C169.914 22.0942 164.515 20.2944 158.707 20.2944C143.572 20.2944 131.219 32.5655 131.219 47.7817C131.219 62.9979 143.572 75.2691 158.707 75.2691C173.923 75.2691 186.276 62.9979 186.276 47.7817C186.276 45.7366 186.03 43.7732 185.621 41.8916L167.542 63.8978C165.66 66.1884 162.879 67.5792 159.934 67.5792Z" fill="#67BA06"/>
<path fill-rule="evenodd" clip-rule="evenodd" d="M190.857 20.2126C190.039 19.5581 189.057 19.2309 188.076 19.2309C186.685 19.2309 185.458 19.8036 184.64 20.8671C184.64 20.8671 184.558 20.8671 184.558 20.9489L160.752 49.8269C159.852 50.8904 158.298 51.054 157.152 50.236L147.99 43.2823C147.172 42.7097 146.272 42.3824 145.29 42.3824C143.9 42.3824 142.591 43.0369 141.773 44.1822C141.036 45.0821 140.791 46.2274 140.954 47.4545C141.118 48.5998 141.691 49.6633 142.672 50.3178L157.316 61.4436C158.052 62.0163 159.034 62.3435 159.934 62.3435C161.325 62.3435 162.552 61.689 163.452 60.6255L191.512 26.43C192.248 25.4483 192.575 24.303 192.493 23.1577C192.33 22.0124 191.757 20.9489 190.857 20.2126Z" fill="#B2ED21"/>
<path fill-rule="evenodd" clip-rule="evenodd" d="M27.8963 29.6205H35.8317C35.8317 29.7841 35.9135 29.9477 35.9135 30.1931C35.9135 30.8476 35.9135 31.3384 35.9135 31.5838C35.9135 34.3653 35.0954 36.5741 33.4592 38.2103C31.8231 39.7646 29.5325 40.5827 26.5874 40.5827C24.9512 40.5827 23.4787 40.3373 22.1698 39.8464C20.8609 39.3556 19.7156 38.6193 18.7339 37.6376C17.7522 36.6559 17.0159 35.5106 16.5251 34.1199C16.0342 32.811 15.7888 31.4202 15.7888 29.9477C15.7888 28.3934 16.0342 27.0026 16.5251 25.6937C17.0977 24.3848 17.834 23.2395 18.8975 22.2578C19.8792 21.2761 21.0245 20.5398 22.3334 20.049C23.6423 19.5581 25.1149 19.3127 26.5874 19.3127C28.1417 19.3127 29.6143 19.5581 30.8414 20.2126C32.1503 20.7853 33.2138 21.6033 34.1955 22.8304L31.8231 24.6302C31.1686 23.8939 30.3505 23.2395 29.5325 22.9122C28.6326 22.5032 27.7327 22.3396 26.6692 22.3396C24.4604 22.3396 22.6606 22.9941 21.2699 24.3848C19.8792 25.8573 19.2247 27.6571 19.2247 29.8659C19.2247 32.1565 19.8792 34.0381 21.2699 35.4288C22.6606 36.9013 24.4604 37.6376 26.6692 37.6376C28.5508 37.6376 30.0233 37.1468 31.0868 36.2469C32.1503 35.4288 32.723 34.2017 32.723 32.7292V32.4019H27.8963V29.6205ZM42.049 26.9208V34.2835C42.049 35.5924 42.2944 36.4923 42.8671 36.9831C43.3579 37.5558 44.176 37.883 45.4031 37.883C46.5484 37.883 47.4483 37.5558 47.9392 36.9831C48.43 36.4923 48.7572 35.5924 48.7572 34.2835V26.9208H51.7023V33.3836C51.7023 35.9196 51.2115 37.7194 50.2298 38.8647C49.2481 40.01 47.6119 40.5827 45.4031 40.5827C43.1943 40.5827 41.5582 40.01 40.5765 38.8647C39.513 37.7194 39.0221 35.9196 39.0221 33.3836V26.9208H42.049ZM46.2212 22.6668C46.2212 22.176 46.3848 21.8487 46.7121 21.5215C47.0393 21.1943 47.4483 21.0307 47.9392 21.0307C48.3482 21.0307 48.7572 21.1943 49.0845 21.4397C49.4117 21.7669 49.5753 22.176 49.5753 22.6668C49.5753 23.1577 49.4117 23.5667 49.0845 23.8939C48.7572 24.2212 48.43 24.303 47.9392 24.303C47.4483 24.303 47.0393 24.2212 46.7121 23.8939C46.3848 23.5667 46.2212 23.1577 46.2212 22.6668ZM41.2309 22.6668C41.2309 22.176 41.3946 21.8487 41.7218 21.5215C42.049 21.1943 42.4581 21.0307 42.8671 21.0307C43.3579 21.0307 43.6852 21.1943 44.0124 21.4397C44.3396 21.7669 44.5033 22.176 44.5033 22.6668C44.5033 23.1577 44.3396 23.5667 44.0124 23.8939C43.767 24.2212 43.3579 24.303 42.8671 24.303C42.3763 24.303 41.9672 24.2212 41.7218 23.8939C41.3946 23.5667 41.2309 23.1577 41.2309 22.6668ZM60.3739 40.8281L53.5021 26.9208H56.7744L59.6376 33.4654C59.7195 33.7108 59.8831 33.9563 59.9649 34.3653C60.1285 34.7743 60.2921 35.2652 60.3739 35.8378C60.4557 35.4288 60.6193 35.1016 60.7011 34.6925C60.8648 34.2835 61.0284 33.8745 61.192 33.4654L64.0553 26.9208H67.2458L60.3739 40.8281ZM81.8075 33.8745H71.3361C71.4179 35.1016 71.7452 36.0833 72.3996 36.7377C73.0541 37.474 73.954 37.8012 75.0175 37.8012C75.9992 37.8012 76.8172 37.5558 77.4717 37.2286C78.0443 36.8195 78.617 36.1651 79.1078 35.1834L81.6439 36.6559C80.9076 37.9648 80.0077 38.9465 78.9442 39.601C77.7989 40.2554 76.5718 40.5827 75.0993 40.5827C72.9723 40.5827 71.3361 39.9282 70.0272 38.6193C68.8001 37.3104 68.2274 35.5924 68.2274 33.4654C68.2274 31.4202 68.8001 29.7841 70.109 28.3934C71.4179 27.0844 73.0541 26.43 75.0993 26.43C77.2263 26.43 78.8624 27.0026 80.0077 28.2297C81.2348 29.4569 81.8075 31.1748 81.8075 33.3018V33.8745ZM78.6988 31.9111C78.5352 30.9294 78.208 30.1931 77.6353 29.7023C76.9809 29.2114 76.1628 28.966 75.0993 28.966C74.1176 28.966 73.3813 29.2114 72.7269 29.7023C72.1542 30.1931 71.7452 30.9294 71.4997 31.9111H78.6988ZM84.9162 40.01V26.9208H87.6976V29.0478C88.3521 28.1479 89.0066 27.4935 89.8246 27.0844C90.6427 26.6754 91.6244 26.43 92.8515 26.43C93.7514 26.43 94.6513 26.5936 95.3057 26.9208C95.9602 27.248 96.5329 27.6571 96.9419 28.3115C97.1873 28.6388 97.3509 29.0478 97.4327 29.5387C97.5145 30.0295 97.5964 30.8476 97.5964 32.0747V40.01H94.5695V33.3018C94.5695 31.5838 94.3241 30.4385 93.915 29.8659C93.506 29.2932 92.7697 28.966 91.7062 28.966C90.9699 28.966 90.3155 29.1296 89.8246 29.375C89.252 29.6205 88.8429 30.0295 88.5157 30.4385C88.2703 30.7658 88.1067 31.1748 88.0249 31.6657C87.9431 32.1565 87.9431 32.9746 87.9431 34.0381V40.01H84.9162ZM101.687 40.01V18.5764H104.714V40.01H101.687ZM108.722 21.1943C108.722 20.7034 108.886 20.2944 109.295 19.8854C109.704 19.5581 110.113 19.3945 110.604 19.3945C111.176 19.3945 111.585 19.5581 111.994 19.8854C112.322 20.2126 112.485 20.7034 112.485 21.1943C112.485 21.7669 112.322 22.176 111.994 22.585C111.585 22.9122 111.176 23.1577 110.604 23.1577C110.113 23.1577 109.704 22.9122 109.295 22.585C108.886 22.176 108.722 21.7669 108.722 21.1943ZM109.131 40.01V26.9208H112.158V40.01H109.131ZM20.9427 66.0248H26.5874L24.4604 61.3618C24.3786 61.1164 24.215 60.7891 24.1332 60.3801C23.9696 59.9711 23.8877 59.562 23.7241 59.0712C23.6423 59.562 23.4787 59.9711 23.3969 60.2983C23.2333 60.7073 23.1515 61.0346 22.9879 61.3618L20.9427 66.0248ZM30.0233 73.9602L27.7327 68.7245H19.7156L17.3431 73.9602H13.9072L23.7241 52.9356L33.4592 73.9602H30.0233ZM35.259 73.9602V52.5266H38.2859V73.9602H35.259ZM42.7035 73.9602V60.871H45.7304V73.9602H42.7035ZM48.5118 71.5877L50.966 70.197C51.1297 70.8515 51.5387 71.3423 52.0295 71.7514C52.5204 72.0786 53.1749 72.2422 53.9111 72.2422C54.5656 72.2422 55.1382 72.0786 55.5473 71.7514C55.8745 71.4241 56.1199 71.0151 56.1199 70.5242C56.1199 69.788 55.3837 69.2153 54.0747 68.6427C53.5839 68.4791 53.2567 68.3972 53.0112 68.2336C51.5387 67.661 50.557 67.0883 50.0662 66.5157C49.4935 65.8612 49.1663 65.1249 49.1663 64.3069C49.1663 63.1616 49.6571 62.1799 50.557 61.4436C51.4569 60.7073 52.684 60.3801 54.2384 60.3801C55.22 60.3801 56.1199 60.5437 56.8562 60.9528C57.5107 61.28 58.0833 61.8526 58.4105 62.5071L56.2835 63.9796C56.1199 63.5706 55.8745 63.2434 55.4655 62.9979C55.0564 62.7525 54.6474 62.5889 54.0747 62.5889C53.5021 62.5889 53.093 62.7525 52.684 62.9979C52.3568 63.3252 52.1932 63.6524 52.1932 64.1433C52.1932 64.7977 53.0112 65.4522 54.4838 66.0248C54.9746 66.1884 55.3837 66.2703 55.6291 66.4339C56.8562 66.9247 57.7561 67.4156 58.2469 68.07C58.7378 68.6427 59.065 69.3789 59.065 70.2788C59.065 71.5877 58.5742 72.6512 57.5925 73.3875C56.6108 74.1238 55.3837 74.5328 53.6657 74.5328C52.3568 74.5328 51.2933 74.2874 50.4752 73.7965C49.6571 73.3057 49.0027 72.5694 48.5118 71.5877ZM50.6388 79.3595V77.8869C51.4569 78.1323 52.0295 78.2142 52.6022 78.296C53.1749 78.3778 53.5839 78.4596 53.9929 78.4596C54.4838 78.4596 54.8928 78.3778 55.0564 78.2142C55.3018 78.0505 55.4655 77.8051 55.4655 77.4779C55.4655 77.1507 55.3018 76.9052 54.9746 76.7416C54.7292 76.578 54.2384 76.4962 53.5839 76.4962C53.5021 76.4962 53.4203 76.4962 53.3385 76.4962C53.1749 76.4962 53.093 76.4962 53.0112 76.4962V73.9602H54.2384V75.1873H54.4838C55.4655 75.1873 56.2835 75.3509 56.7744 75.7599C57.2652 76.169 57.5107 76.7416 57.5107 77.5597C57.5107 78.296 57.2652 78.9504 56.6926 79.3595C56.1199 79.7685 55.3018 79.9321 54.2384 79.9321C53.7475 79.9321 53.2567 79.9321 52.684 79.7685C52.0295 79.6867 51.3751 79.6049 50.6388 79.3595ZM66.6731 74.7782L59.8013 60.871H63.0736L65.9368 67.4156C66.0186 67.661 66.1004 67.9882 66.2641 68.3154C66.4277 68.7245 66.5095 69.2153 66.6731 69.788C66.7549 69.3789 66.8367 69.0517 67.0003 68.6427C67.0821 68.2336 67.2458 67.8246 67.4094 67.4156L70.2726 60.871H73.5449L66.6731 74.7782ZM88.0249 67.8246H77.5535C77.6353 69.0517 78.0443 70.0334 78.6988 70.6879C79.3533 71.4241 80.1713 71.7514 81.3167 71.7514C82.2165 71.7514 83.0346 71.5059 83.6891 71.1787C84.3435 70.7697 84.9162 70.1152 85.407 69.1335L87.9431 70.6061C87.2068 71.915 86.3069 72.8967 85.1616 73.5511C84.0981 74.2056 82.7892 74.5328 81.3167 74.5328C79.2715 74.5328 77.5535 73.8784 76.3264 72.5694C75.0993 71.2605 74.4448 69.5426 74.4448 67.4156C74.4448 65.3704 75.0993 63.7342 76.4082 62.3435C77.7171 61.0346 79.3533 60.3801 81.3167 60.3801C83.4436 60.3801 85.0798 61.0346 86.3069 62.1799C87.4522 63.407 88.0249 65.1249 88.0249 67.2519V67.8246ZM84.9162 65.8612C84.8344 64.8795 84.5071 64.1433 83.8527 63.6524C83.28 63.1616 82.462 62.9161 81.3985 62.9161C80.4168 62.9161 79.5987 63.1616 79.026 63.6524C78.4534 64.1433 78.0443 64.8795 77.7989 65.8612H84.9162ZM94.1604 62.9161C94.4877 62.0981 94.8967 61.4436 95.4694 61.0346C95.9602 60.6255 96.6147 60.3801 97.4327 60.3801C97.8418 60.3801 98.2508 60.4619 98.6599 60.5437C99.0689 60.6255 99.4779 60.7891 99.887 60.9528L98.8235 63.5706C98.578 63.3252 98.2508 63.2434 98.0054 63.1616C97.6782 62.9979 97.3509 62.9979 96.9419 62.9979C95.9602 62.9979 95.3057 63.407 94.8149 64.2251C94.4059 64.9613 94.1604 66.3521 94.1604 68.2336V73.9602H91.2154V60.7891H94.1604V62.9161ZM101.36 55.1444C101.36 54.6536 101.523 54.2445 101.932 53.8355C102.259 53.5083 102.75 53.3447 103.241 53.3447C103.814 53.3447 104.223 53.5083 104.55 53.8355C104.959 54.1627 105.123 54.6536 105.123 55.1444C105.123 55.7171 104.959 56.1261 104.55 56.5352C104.223 56.8624 103.814 57.1078 103.241 57.1078C102.75 57.1078 102.259 56.8624 101.932 56.5352C101.523 56.1261 101.36 55.7171 101.36 55.1444ZM101.769 73.9602V60.871H104.714V73.9602H101.769ZM107.495 71.5877L110.031 70.197C110.195 70.8515 110.522 71.3423 111.013 71.7514C111.585 72.0786 112.158 72.2422 112.976 72.2422C113.631 72.2422 114.203 72.0786 114.531 71.7514C114.94 71.4241 115.103 71.0151 115.103 70.5242C115.103 69.788 114.449 69.2153 113.058 68.6427C112.649 68.4791 112.24 68.3972 111.994 68.2336C110.604 67.661 109.622 67.0883 109.049 66.5157C108.559 65.8612 108.231 65.1249 108.231 64.3069C108.231 63.1616 108.722 62.1799 109.622 61.4436C110.522 60.7073 111.749 60.3801 113.222 60.3801C114.285 60.3801 115.103 60.5437 115.839 60.9528C116.576 61.28 117.148 61.8526 117.476 62.5071L115.349 63.9796C115.185 63.5706 114.858 63.2434 114.531 62.9979C114.121 62.7525 113.631 62.5889 113.14 62.5889C112.567 62.5889 112.076 62.7525 111.749 62.9979C111.422 63.3252 111.258 63.6524 111.258 64.1433C111.258 64.7977 111.994 65.4522 113.549 66.0248C114.04 66.1884 114.449 66.2703 114.694 66.4339C115.921 66.9247 116.739 67.4156 117.312 68.07C117.803 68.6427 118.048 69.3789 118.048 70.2788C118.048 71.5877 117.557 72.6512 116.658 73.3875C115.676 74.1238 114.367 74.5328 112.731 74.5328C111.422 74.5328 110.358 74.2874 109.54 73.7965C108.64 73.3057 107.986 72.5694 107.495 71.5877ZM109.704 79.3595V77.8869C110.44 78.1323 111.095 78.2142 111.667 78.296C112.158 78.3778 112.649 78.4596 113.058 78.4596C113.549 78.4596 113.876 78.3778 114.121 78.2142C114.367 78.0505 114.449 77.8051 114.449 77.4779C114.449 77.1507 114.285 76.9052 114.04 76.7416C113.712 76.578 113.303 76.4962 112.649 76.4962C112.567 76.4962 112.485 76.4962 112.322 76.4962C112.24 76.4962 112.158 76.4962 112.076 76.4962V73.9602H113.222V75.1873H113.467C114.531 75.1873 115.267 75.3509 115.839 75.7599C116.33 76.169 116.576 76.7416 116.576 77.5597C116.576 78.296 116.248 78.9504 115.758 79.3595C115.185 79.7685 114.367 79.9321 113.303 79.9321C112.813 79.9321 112.322 79.9321 111.667 79.7685C111.095 79.6867 110.44 79.6049 109.704 79.3595Z" fill="#F4F4F4"/>
</g>
<defs>
<clipPath id="clip0">
<rect width="210" height="94.5" fill="white"/>
</clipPath>
</defs>
</svg>
